<svg xmlns="http://www.w3.org/2000/svg" width="1447" height="197" fill="none" viewBox="0 0 1447 197">
  <g clip-path="url(#a)">
    <path fill="#E63C39" d="M139.036-.302c2.739.001 5.479-.003 8.218-.008 6.455-.011 12.91-.012 19.365-.006 6.645.006 13.29-.006 19.934-.027 5.738-.018 11.476-.024 17.214-.02 3.414.001 6.828-.001 10.241-.015 3.789-.013 7.577-.006 11.365.006l3.408-.024 3.12.022h2.708C237.513.08 238.878.992 241 3c1.745 5.266.41 9.75-.937 14.938l-.663 2.664c-.786 3.137-1.592 6.267-2.4 9.398l-1.026 4.01A6112.84 6112.84 0 0 1 229 61l2.703.078 3.547.172 3.516.14c3.744.706 4.991 1.576 7.234 4.61.25 3.25.25 3.25 0 6l2.16-1.645C258.863 62.361 267.475 58.887 281 60c11.713 2.264 19.862 7.56 27 17l1.766-1.758c10.768-10.26 22.264-15.807 37.152-15.488 10.332.825 20.147 4.791 27.395 12.371 6.29 8.006 8.784 17.842 8.864 27.82l.02 2.057c.02 2.231.031 4.462.041 6.693l.013 2.315c.021 4.037.035 8.073.044 12.11.011 4.171.046 8.341.085 12.512.027 3.208.035 6.417.039 9.625.004 1.539.016 3.077.035 4.615.024 2.147.023 4.293.016 6.441l.018 3.702C383 163 383 163 381.139 164.893c-4.466 2.312-9.723 1.575-14.639 1.544l-3.457.061-3.324-.002-3.033.006c-3.49-.652-4.498-1.735-6.686-4.502-.499-2.857-.499-2.857-.498-6.202l-.031-3.804.013-2.025c.012-2.103.001-4.205-.016-6.308-.027-3.713-.033-7.425-.031-11.137.002-5.927-.012-11.854-.056-17.781-.01-2.061-.001-4.121.009-6.181-.038-6.938-.427-12.264-3.39-18.562l-1-3c-4.527-2.775-9.875-2.629-15-2-2.945 1.219-4.591 2.099-7 4l-2.058 1.48c-3.497 2.916-5.649 5.137-6.609 9.675-.175 3.835-.101 7.62.062 11.45.027 1.412.051 2.823.07 4.235.058 3.697.161 7.391.277 11.086.185 5.923.324 11.846.421 17.771.043 2.063.12 4.122.198 6.184l.08 3.803.107 3.339c-.735 3.992-2.446 5.457-5.548 7.977-2.691.647-2.691.647-5.562.664l-3.164.02-3.274-.059-3.273.059-3.164-.02-2.872-.017c-3.789-.911-5.223-2.674-7.691-5.647-.619-2.984-.619-2.984-.612-6.332l-.03-3.813.041-4.097c-.006-1.411-.014-2.822-.025-4.233-.023-3.71-.018-7.419-.006-11.128.018-5.93.008-11.859-.026-17.788-.006-2.062.007-4.124.022-6.186-.023-7.873-.094-13.658-5.426-19.798-4.217-3.537-8.647-3.082-13.938-2.625-5.698 2.15-10.809 5.735-14 11-.445 3.04-.445 3.04-.369 6.449l-.021 3.964.01 2.111c.009 2.186-.001 4.371-.017 6.557-.04 6.213-.041 12.426-.039 18.639 0 3.804-.019 7.608-.049 11.412-.011 2.152.001 4.303.014 6.455l-.031 3.964.001 3.489c-.606 3.597-1.63 4.774-4.499 6.96-2.685.502-2.685.502-5.719.496l-3.324.002-3.457-.061-3.457.022c-8.071-.062-8.071-.062-11.362-1.407-2.769-3.381-2.284-7.076-2.29-11.314l-.05-2.745c-.049-2.893-.07-5.786-.091-8.681-.028-1.961-.058-3.923-.09-5.884-.074-4.81-.123-9.618-.16-14.428l-1.181 3.228C203.915 143.966 195.927 161.46 178 172l-2.184 1.355c-5.286 2.978-10.876 4.715-16.691 6.332l-2.119.614c-17.834 4.644-36.878 4.015-55.143 4.001-2.737-.002-5.474.003-8.211.008-6.449.011-12.898.012-19.347.006a4894.88 4894.88 0 0 0-19.912.027c-5.733.018-11.467.024-17.2.021-3.411-.002-6.821 0-10.232.014-3.783.013-7.566.006-11.35-.006l-3.403.023-3.116-.021-2.703.001c-2.89-.454-4.27-1.389-6.389-3.375-2.27-8.931 1.775-19.414 4.059-28.082.428-1.661.854-3.322 1.28-4.984.896-3.482 1.8-6.963 2.712-10.441a2703.19 2703.19 0 0 0 3.388-13.092c4.23-16.481 8.578-32.918 13.463-49.217l1.073-3.585C31.825 52.405 38.615 34.46 53 20l1.824-1.93C75.688-2.295 112.386-.323 139.036-.302ZM60.664 39.102C44.914 57.07 42.078 78.986 43 102c1.017 13.944 4.837 27.521 13 39l1.363 1.918c11.662 14.881 31.348 20.263 49.289 22.547 3.12.271 6.218.439 9.348.535l2.574.121c21.322.555 44.122-3.163 60.676-17.434 15.763-14.988 20.164-33.362 20.746-54.593.212-20.258-4.045-39.495-18.058-54.781C172.923 30.771 161.957 25.892 150 23l-2.519-.645c-27.156-5.944-65.812-3.703-86.817 16.747Z"/>
    <path fill="#fff" d="m636.024 29.762 3.952-.025c2.738-.015 5.476-.025 8.214-.032 3.5-.011 7-.046 10.5-.085 3.361-.033 6.722-.037 10.084-.046l3.794-.053 3.531.009 3.096-.018c3.552.618 5.225 2.023 7.805 4.488 1.24 2.48 1.134 4.14 1.147 6.914l.022 3.148.008 3.469.02 3.641c.016 3.302.028 6.604.036 9.905l.018 6.189c.019 6.453.033 12.907.041 19.36.01 7.45.036 14.901.077 22.351.03 5.758.045 11.516.048 17.274.002 3.439.011 6.878.037 10.317.027 3.838.023 7.675.016 11.513l.039 3.45c-.051 7.678-.051 7.678-2.351 11.651-4.644 3.911-10.273 3.038-16.033 3.068l-3.012.062c-9.233.05-9.233.05-13.113-3.312-5.559-8.339-2-19.978-2-30h-66l-2 10a266.994 266.994 0 0 1-2.312 8.812l-.569 2.194c-1.381 4.862-3.088 7.713-7.119 10.994-4.703 1.568-9.449 1.226-14.375 1.25l-3.156.062c-4.137.022-7.715-.089-11.695-1.265-2.475-2.856-2.038-4.901-1.96-8.571.293-3.897 1.195-7.531 2.218-11.294l.656-2.517c.711-2.721 1.439-5.437 2.168-8.153l1.511-5.727c1.054-3.994 2.117-7.985 3.185-11.975a3358.473 3358.473 0 0 0 4.041-15.261 4422.05 4422.05 0 0 1 3.133-11.821c.497-1.874.993-3.748 1.486-5.622C570.093 50.41 570.093 50.41 585 40c16.08-9.085 32.964-10.13 51.024-10.238ZM611 62l-2.687 1.625c-7.207 7.402-9.179 18.302-11.625 28L593 106h59V58l-16-.25-5-.11c-7.554-.097-13.529.013-20 4.36Zm227.059-32.238 3.218-.025c2.245-.014 4.49-.024 6.735-.032 2.268-.012 4.535-.032 6.803-.062 21.675-.283 41.587 1.313 58.119 17.048 4.606 5.146 6.818 10.9 7.316 17.746-.322 4.594-1.653 6.91-4.809 10.176-3.675 2.088-7.097 1.862-11.253 1.825l-2.37.06c-5.753-.005-9.136-1.115-13.818-4.498-1.855-2.254-1.855-2.254-3.187-4.563-1.946-3.325-3.516-5.4-6.813-7.437-9.436-2.183-19.35-2.347-28.992-2.316-2.035.004-4.07-.02-6.106-.045-9.381-.053-9.381-.053-17.902 3.361-2.348 1.932-2.348 1.932-2.375 5.375.055 3.56.055 3.56 1.9 5.666 3.217 2.546 6.599 3.71 10.459 4.924l2.393.773c9.153 2.872 18.493 4.857 27.873 6.825 42.553 8.939 42.553 8.939 53.32 24.742 5.148 8.972 5.944 18.723 3.746 28.843-3.389 10.044-8.934 16.888-18.316 21.852-11.148 5.021-22.422 6.311-34.543 6.336l-3.537.02c-2.456.01-4.913.015-7.369.015-3.711.004-7.421.04-11.131.078-21.12.101-40.31-1.87-56.354-17.14-5.307-5.93-7.36-12.582-7.214-20.414.194-2.475.616-3.925 2.148-5.895 4.483-3.49 8.43-3.487 13.875-3.438l2.356-.06c5.733.005 9.102 1.13 13.769 4.498 1.856 2.254 1.856 2.254 3.188 4.562 2.588 4.424 4.885 6.796 9.812 8.438 9.147 1.393 18.506 1.219 27.736 1.24 2.589.01 5.177.041 7.766.072 1.662.007 3.324.012 4.986.016l2.321.038c4.782-.02 8.057-.708 12.191-3.366 2.329-2.876 2.329-2.876 1.938-6.438-.667-3.547-.667-3.547-2.75-5.75-10.601-6.027-23.449-7.759-35.259-10.237C801.174 102.714 801.174 102.714 789 85c-4.99-9.006-4.827-18.95-2.281-28.773C790.123 46.689 796.949 39.478 806 35c10.734-3.814 20.768-5.155 32.059-5.238Z"/>
    <path fill="#FEFEFE" d="M296.644 65.613C301.076 68.927 304.669 72.594 308 77l1.766-1.758c10.767-10.26 22.264-15.806 37.152-15.488 10.332.825 20.147 4.791 27.394 12.371 6.291 8.006 8.785 17.842 8.865 27.82l.02 2.057c.019 2.231.031 4.462.041 6.693l.013 2.315c.02 4.037.035 8.073.044 12.11.011 4.171.046 8.341.085 12.512.026 3.209.035 6.417.038 9.625.005 1.539.017 3.077.035 4.615.025 2.147.024 4.293.017 6.441l.018 3.702C383 163 383 163 381.138 164.893c-4.465 2.312-9.723 1.575-14.638 1.545l-3.457.06-3.324-.002-3.034.006c-3.489-.652-4.497-1.735-6.685-4.502-.499-2.857-.499-2.857-.498-6.202l-.031-3.804.013-2.025c.012-2.103.001-4.205-.017-6.308-.026-3.713-.032-7.425-.03-11.137.002-5.927-.013-11.854-.056-17.781-.01-2.061-.001-4.121.009-6.181-.038-6.938-.427-12.264-3.39-18.562l-1-3c-4.527-2.775-9.875-2.629-15-2-2.945 1.219-4.591 2.099-7 4l-2.058 1.48c-3.498 2.916-5.649 5.137-6.61 9.675-.174 3.835-.1 7.62.062 11.45.028 1.412.051 2.823.071 4.235.058 3.697.161 7.391.277 11.086.184 5.923.324 11.846.421 17.771.043 2.063.119 4.123.198 6.184l.08 3.803.106 3.339c-.734 3.992-2.446 5.457-5.547 7.977-2.691.647-2.691.647-5.563.664l-3.164.02-3.273-.059-3.274.059-3.164-.02-2.871-.017c-3.79-.911-5.223-2.674-7.691-5.647-.619-2.984-.619-2.984-.612-6.332l-.03-3.813.04-4.097a995.51 995.51 0 0 0-.024-4.233c-.023-3.71-.019-7.419-.006-11.128.018-5.93.008-11.859-.026-17.788-.006-2.062.007-4.124.022-6.186-.023-7.873-.095-13.658-5.427-19.798-4.216-3.537-8.646-3.082-13.937-2.625-5.698 2.15-10.809 5.735-14 11-.445 3.04-.445 3.04-.369 6.449l-.021 3.964.01 2.111c.009 2.186-.001 4.371-.017 6.557-.04 6.213-.041 12.426-.039 18.639 0 3.804-.019 7.608-.049 11.412-.011 2.152.001 4.303.014 6.455l-.031 3.964.001 3.489c-.606 3.597-1.63 4.774-4.499 6.96-2.686.502-2.686.502-5.719.496l-3.324.002-3.457-.06-3.457.021c-8.146-.062-8.146-.062-11.179-1.404-3.032-3.342-2.421-6.987-2.382-11.344l-.021-2.883c-.018-3.151-.006-6.302.008-9.453-.003-2.186-.007-4.371-.012-6.557-.006-4.583.003-9.166.021-13.75.023-5.881.01-11.762-.014-17.644-.014-4.514-.01-9.028.001-13.542.002-2.17-.001-4.338-.01-6.507-.01-3.03.005-6.057.027-9.086l-.024-2.73c.083-6.053.083-6.053 2.406-8.614 4.584-2.028 9.713-1.413 14.636-1.383l3.457-.06 3.324.002 3.033-.006c3.41.637 4.603 1.773 6.686 4.502.25 3.25.25 3.25 0 6l2.16-1.644c14.721-10.996 31.701-14.981 48.484-4.743Z"/>
    <path fill="#fff" d="M1300 69c10.51 8.232 15.73 21.012 17.75 33.937 1.45 16.847.08 34.615-11.04 48.192-9.91 10.835-21 15.945-35.71 16.871-10.91.089-20.57-1.862-31-5 .02 1.385.02 1.385.03 2.798.04 3.427.06 6.854.08 10.282.01 1.483.02 2.966.04 4.449.03 2.132.04 4.264.05 6.397.01 1.924.01 1.924.03 3.888C1240 194 1240 194 1238 197c-2.75.388-2.75.388-6.21.398l-3.77.012-3.96-.035-3.94.035-3.77-.012-3.47-.01c-2.88-.388-2.88-.388-4.54-1.588-1.81-2.427-1.72-3.978-1.72-6.993l-.03-3.259c.01-1.18.02-2.36.02-3.575 0-1.243-.01-2.485-.01-3.765-.02-3.409-.01-6.818 0-10.227 0-3.567 0-7.134-.01-10.701 0-5.992 0-11.983.02-17.974.02-6.926.01-13.852-.01-20.778-.01-5.946-.01-11.892 0-17.837 0-3.552 0-7.103-.01-10.655-.01-3.96.01-7.92.02-11.88 0-1.177-.01-2.355-.02-3.569l.03-3.267v-2.837c.45-2.959 1.32-4.338 3.38-6.483 2.5-.502 2.5-.502 5.44-.496l3.21-.002 3.35.06 3.35-.021c8.14.064 8.14.064 10.45 1.85 1.38 1.844 1.81 3.355 2.2 5.609.7-.398 1.41-.797 2.13-1.207 19.51-10.465 41.15-11.175 59.87 1.207Zm-55 20-2.64.912c-2.53 1.813-2.53 1.813-2.8 4.214-.14 2.901-.12 5.763-.05 8.667.01 1.061.02 2.122.02 3.216.03 3.393.09 6.785.16 10.178.02 2.299.05 4.598.07 6.897.05 5.639.13 11.277.24 16.916 1.28.488 2.56.973 3.84 1.458l2.16.82c7.94 2.862 18.18 3.259 26.06.159 5.4-2.851 7.97-6.814 10.05-12.433 1.39-5.171 1.26-10.435 1.27-15.754.03-1.531.03-1.531.07-3.094.03-7.799-.88-16.133-6.26-22.194-5.25-4.752-9.89-5.36-16.85-5.318-5.59.596-10.37 2.797-15.34 5.356Zm187-16c8.28 7.568 13.4 18.46 14.19 29.669.08 2.905.08 5.8.06 8.706l.02 3.02v2.878c-.01.861-.01 1.721-.01 2.607C1446 122 1446 122 1444 124c-3.05.241-3.05.241-7.02.227l-2.19.001c-2.39-.001-4.78-.017-7.17-.033l-4.97-.008c-4.36-.008-8.73-.028-13.09-.05-4.45-.02-8.9-.029-13.35-.039-8.74-.022-17.47-.056-26.21-.098.46 1.597.93 3.194 1.39 4.789.26.889.52 1.778.79 2.694 1.63 4.988 3.77 8.195 8.39 10.654 4.57 2.192 8.55 2.431 13.56 2.301l2.33.021c6.67-.074 11.3-2.011 16.23-6.584 4.95-4.575 9.82-4.089 16.25-4.125l2.75-.062 2.65-.016 2.42-.028c2.8.445 4.17 1.452 6.24 3.356 1.4 5.226 0 10.491-2.62 15.086-6.13 8.487-14.69 12.095-24.69 14.102-21 3.35-42.85 3.277-61.34-8.434-10.37-7.734-15.49-18.378-17.84-30.856-2.26-17.341-.44-34.476 9.98-48.968 19.66-24.68 62.23-23.31 85.51-4.93Zm-58 16c-3.42 5.256-3.24 8.179-4 15h43c-2.02-10.601-2.02-10.601-8.31-18.25-9.52-6.195-22.72-4.95-30.69 3.25ZM507.523 67.992C516.102 74.947 520.184 84.258 522 95c.105 2.216.158 4.436.177 6.655l.02 1.963c.02 2.128.031 4.257.041 6.386l.013 2.211c.02 3.856.035 7.712.044 11.568.011 3.98.046 7.96.085 11.94.026 3.066.035 6.131.038 9.196.005 1.468.017 2.935.035 4.403.025 2.051.024 4.101.017 6.153l.018 3.534c-.591 3.625-1.596 4.795-4.488 6.991-2.686.502-2.686.502-5.719.496l-3.324.002-3.457-.061-3.457.022c-9.618-.074-9.618-.074-13.043-3.459-.499-2.647-.499-2.647-.498-5.873l-.031-3.663.025-3.968c-.007-1.362-.017-2.724-.028-4.085-.027-3.592-.033-7.183-.031-10.775.002-5.723-.013-11.446-.056-17.169-.01-1.986-.001-3.972.009-5.958-.048-8.569-.293-16.715-5.89-23.572-4.234-3.281-8.192-3.392-13.383-3.351-5.638.749-10.368 3.386-15.117 6.414l-3.137 1.704c-2.36 2.013-2.833 3.128-3.393 6.225a147.057 147.057 0 0 0-.137 9.485c.039 2.144.04 4.287.032 6.432-.009 4.552.03 9.102.073 13.654.044 5.276.069 10.552.055 15.828a416.4 416.4 0 0 0 .072 6.323l-.001 3.894.035 3.42c-.791 4.008-2.469 5.499-5.599 8.035-2.707.599-2.707.599-5.598.559l-3.177-.022-3.287-.1-3.299-.017c-9.077-.14-9.077-.14-12.639-2.42-1.695-3.389-1.166-7.247-1.177-10.976l-.02-2.819c-.02-3.087-.031-6.173-.041-9.26l-.013-3.188c-.021-5.568-.035-11.136-.044-16.704-.011-5.759-.046-11.518-.085-17.278-.026-4.421-.035-8.842-.038-13.264-.005-2.123-.017-4.247-.035-6.37a826.186 826.186 0 0 1-.017-8.906l-.039-2.667c.051-5.94.051-5.94 2.364-9.115 2.841-1.924 4.702-1.94 8.118-1.914l3.474.012 3.615.074 3.627.004c8.889.09 8.889.09 12.311 2.371.701 2.663.777 5.24 1 8l2.527-1.645c18.138-11.606 39.174-15.327 57.996-2.363Zm660.857 4.805A39.136 39.136 0 0 1 1173 78c.68.87.68.87 1.38 1.758 9.11 12.972 10.05 30.706 8.16 45.972-2.26 11.972-7.04 23.619-16.98 31.106-17.8 11.986-38.94 13.111-59.56 9.164-8.95-2.378-16.28-5.573-23-12-.95-.911-.95-.911-1.93-1.84-12.05-12.62-12.64-28.294-12.38-44.765.45-12.878 4.3-24.404 13.6-33.676 22.95-19.528 62.33-18.845 86.09-.922ZM1107 90c-6.48 11.245-6.88 26.729-3.81 39.188 2 6.047 4.69 10.816 10.19 14.25 6.69 2.941 15.22 2.753 22.19.867 6-2.715 9.83-7.241 12.18-13.367 3.59-12.3 3.35-26.891-2-38.625-3.07-5.392-6.78-7.875-12.69-9.563-9.81-2.063-19.06-.234-26.06 7.25Zm-65-19c5.44 4.706 8.57 10.456 9.25 17.625.16 6.755.16 6.755-2.25 10.375-3.73.667-7.53.463-11.31.438l-3.17.06c-7.68-.005-7.68-.005-11.54-2.267a178.62 178.62 0 0 1-7.04-8.426c-5.3-4.927-12.52-4.164-19.299-4.051-6.108.413-9.824 1.59-14.453 5.808-7.155 10.007-6.447 24.274-4.649 35.934 1.219 4.937 2.622 8.994 6.461 12.504 8.265 4.821 17 4.942 26.38 3.68 5.7-1.635 8.83-5.907 12.44-10.403 3.49-3.652 6.56-4.347 11.47-4.578 1.59-.014 3.18-.018 4.77-.011l2.43-.049c3.46-.003 5.9.062 9.04 1.595 2.42 2.904 2.01 5.364 1.85 9.008-.99 7.209-3.78 13.27-9.22 18.164-11.8 8.705-25.83 10.952-40.16 11.594l-2.48.125c-14.775.385-31.095-2.361-42.563-12.254L956 154l-1.926-1.84c-12.051-12.619-12.639-28.288-12.386-44.758C942.081 96.136 944.915 86.909 952 78l1.867-2.523C973.512 52.666 1019.1 55.659 1042 71Z"/>
    <path fill="#E63C39" d="M149.746 53.156c9.077 7.425 12.687 18.697 14.004 30.032.106 1.602.189 3.207.25 4.812l.121 2.348c.384 13.902-1.852 28.723-11.012 39.644-9.497 9.04-21.186 10.375-33.713 10.309-11.216-.278-22.054-2.946-30.209-11.117-10.833-13.407-11.274-31.114-9.91-47.52C80.664 71.6 84.027 60.774 92 54c16.069-11.478 41.298-11.616 57.746-.844ZM116 50c-1.093 2.187-1.256 3.667-1.481 6.092l-.242 2.56-.25 2.782-.264 2.871a2444.46 2444.46 0 0 0-.547 6.04 2797.34 2797.34 0 0 1-.843 9.145l-.533 5.881-.256 2.726c-.556 6.322-.653 12.556-.584 18.903l-12-6-1.504 2.59-2.058 3.347-2.004 3.34C91 113 91 113 87.223 113.879L84 114v3c4.076.734 4.076.734 8 0 3.034-3.131 7-7.45 7-12l14 7 3-45c.938 16.813.938 16.813 1.226 22.109l.239 4.16.115 2.179c.18 3.06.445 5.626 1.42 8.552 2.521 1.186 2.521 1.186 5.563 2.187 6.261 2.439 10.141 5.72 14.437 10.813l7-6c4 2 4 2 5.938 4.125 1.94 2.143 1.94 2.143 4.812 2.125L159 117l1-3-2.625-.625c-4.296-1.75-6.265-3.969-9.375-7.375-3.817 1.555-6.192 4.036-9 7l-1.215-1.391c-4.379-4.727-8.641-7.594-14.785-9.609h-2l-.148-3.426c-.472-10.348-1.1-20.68-1.852-31.011l-.251-3.535-.249-3.337-.219-2.962c-.271-2.628-.717-5.15-1.281-7.729h-1Z"/>
    <path fill="#fff" d="m739.812 29.688 2.987-.088c6.057-.053 9.613.313 14.201 4.4 1.24 2.48 1.134 4.14 1.147 6.914l.022 3.148.008 3.469.02 3.641c.016 3.302.028 6.604.036 9.905l.018 6.189c.019 6.453.033 12.907.041 19.36.01 7.45.036 14.901.077 22.351.03 5.758.045 11.516.048 17.274.002 3.439.011 6.878.036 10.317.028 3.838.024 7.675.017 11.513l.039 3.45c-.051 7.678-.051 7.678-2.351 11.651-4.644 3.911-10.273 3.038-16.033 3.068l-3.012.062c-9.233.05-9.233.05-13.113-3.312-2.186-3.279-2.253-4.233-2.268-8.035l-.025-3.152.002-3.457-.02-3.642c-.016-3.298-.022-6.595-.024-9.893-.002-2.753-.009-5.507-.016-8.26-.016-6.497-.021-12.994-.02-19.491.001-6.7-.02-13.4-.051-20.1-.026-5.754-.037-11.508-.036-17.261.001-3.436-.005-6.872-.026-10.308a1259.18 1259.18 0 0 1-.002-11.498l-.034-3.445c.061-7.667.061-7.667 2.363-11.64 4.619-3.894 10.232-3.075 15.969-3.13Z"/>
  </g>
  <defs>
    <clipPath id="a">
      <path fill="#fff" d="M0 0h1447v197H0z"/>
    </clipPath>
  </defs>
</svg>
